<?xml version="1.0" standalone="no"?><!DOCTYPE svg PUBLIC "-//W3C//DTD SVG 1.1//EN" "http://www.w3.org/Graphics/SVG/1.1/DTD/svg11.dtd"><svg t="1744433223201" class="icon" viewBox="0 0 1024 1024" version="1.1" xmlns="http://www.w3.org/2000/svg" p-id="4400" xmlns:xlink="http://www.w3.org/1999/xlink" width="200" height="200"><path d="M892.63 419.05c0-111.18-90.13-201.3-201.3-201.3-72.9 0-136.75 38.75-172.07 96.78-30.94-27.57-71.72-44.33-116.42-44.33-65.75 0-123.03 36.25-152.96 89.86-66.45 6.01-118.52 61.86-118.52 129.88 0 72.03 58.39 130.42 130.42 130.42h456.48c37.56 0 71.4-15.88 95.2-41.29 48.12-36.79 79.17-94.78 79.17-160.02z" fill="#EFF3F8" p-id="4401"></path><path d="M319.81 695.27l-48.66 28.57c-2.95 1.73-6.74 0.74-8.48-2.21-1.73-2.95-0.74-6.74 2.21-8.48l48.66-28.57c2.95-1.73 6.74-0.74 8.48 2.21 1.72 2.95 0.74 6.75-2.21 8.48z" fill="#7CA7EA" p-id="4402"></path><path d="M296.72 682.83l-7.28 27.97c-0.86 3.31-4.24 5.3-7.55 4.43-3.31-0.86-5.3-4.24-4.43-7.55l7.28-27.97c0.86-3.31 4.24-5.3 7.55-4.43 3.3 0.86 5.29 4.24 4.43 7.55z" fill="#7CA7EA" p-id="4403"></path><path d="M285.09 703.39l27.97 7.28c3.31 0.86 5.3 4.24 4.43 7.55-0.86 3.31-4.24 5.3-7.55 4.43l-27.97-7.28c-3.31-0.86-5.3-4.24-4.43-7.55a6.188 6.188 0 0 1 7.55-4.43zM260.07 653.24l0.41 56.42a6.203 6.203 0 0 1-6.15 6.24 6.203 6.203 0 0 1-6.24-6.15l-0.41-56.42a6.203 6.203 0 0 1 6.15-6.24c3.42-0.02 6.22 2.73 6.24 6.15z" fill="#7CA7EA" p-id="4404"></path><path d="M237.76 667.02l20.58 20.29c2.44 2.4 2.46 6.32 0.06 8.76-2.4 2.44-6.32 2.46-8.76 0.06l-20.58-20.29c-2.44-2.4-2.46-6.32-0.06-8.76a6.202 6.202 0 0 1 8.76-0.06z" fill="#7CA7EA" p-id="4405"></path><path d="M249.75 687.37l20.29-20.58c2.4-2.44 6.32-2.46 8.76-0.06 2.44 2.4 2.46 6.32 0.06 8.76l-20.29 20.58c-2.4 2.44-6.32 2.46-8.76 0.06a6.184 6.184 0 0 1-0.06-8.76zM193.81 683.96l49.07 27.86c2.97 1.69 4.02 5.47 2.33 8.44-1.69 2.97-5.47 4.02-8.44 2.33l-49.07-27.86c-2.97-1.69-4.02-5.47-2.33-8.44a6.19 6.19 0 0 1 8.44-2.33z" fill="#7CA7EA" p-id="4406"></path><path d="M194.58 710.18l27.86-7.68c3.3-0.91 6.71 1.03 7.62 4.32 0.91 3.3-1.03 6.71-4.32 7.62l-27.86 7.68c-3.3 0.91-6.71-1.03-7.62-4.32a6.199 6.199 0 0 1 4.32-7.62z" fill="#7CA7EA" p-id="4407"></path><path d="M218.2 709.97l-7.68-27.86a6.199 6.199 0 0 1 4.32-7.62c3.3-0.91 6.71 1.03 7.62 4.32l7.68 27.86c0.91 3.3-1.03 6.71-4.32 7.62a6.19 6.19 0 0 1-7.62-4.32z" fill="#7CA7EA" p-id="4408"></path><path d="M187.28 756.71l48.66-28.57c2.95-1.73 6.74-0.74 8.48 2.21 1.73 2.95 0.74 6.74-2.21 8.48l-48.66 28.57c-2.95 1.73-6.74 0.74-8.48-2.21a6.2 6.2 0 0 1 2.21-8.48z" fill="#7CA7EA" p-id="4409"></path><path d="M210.37 769.14l7.28-27.97c0.86-3.31 4.24-5.3 7.55-4.43 3.31 0.86 5.3 4.24 4.43 7.55l-7.28 27.97c-0.86 3.31-4.24 5.3-7.55 4.43-3.31-0.85-5.29-4.24-4.43-7.55z" fill="#7CA7EA" p-id="4410"></path><path d="M222 748.59l-27.97-7.28c-3.31-0.86-5.3-4.24-4.43-7.55 0.86-3.31 4.24-5.3 7.55-4.43l27.97 7.28c3.31 0.86 5.3 4.24 4.43 7.55a6.196 6.196 0 0 1-7.55 4.43z" fill="#7CA7EA" p-id="4411"></path><path d="M247.02 798.73l-0.41-56.42a6.203 6.203 0 0 1 6.15-6.24 6.203 6.203 0 0 1 6.24 6.15l0.41 56.42a6.203 6.203 0 0 1-6.15 6.24 6.184 6.184 0 0 1-6.24-6.15z" fill="#7CA7EA" p-id="4412"></path><path d="M269.33 784.96l-20.58-20.29c-2.44-2.4-2.46-6.32-0.06-8.76 2.4-2.44 6.32-2.46 8.76-0.06l20.58 20.29c2.44 2.4 2.46 6.32 0.06 8.76a6.202 6.202 0 0 1-8.76 0.06z" fill="#7CA7EA" p-id="4413"></path><path d="M257.34 764.61l-20.29 20.58c-2.4 2.44-6.32 2.46-8.76 0.06-2.44-2.4-2.46-6.32-0.06-8.76l20.29-20.58c2.4-2.44 6.32-2.46 8.76-0.06 2.43 2.4 2.46 6.32 0.06 8.76z" fill="#7CA7EA" p-id="4414"></path><path d="M313.28 768.01l-49.07-27.86c-2.97-1.69-4.02-5.47-2.33-8.44 1.69-2.97 5.47-4.02 8.44-2.33l49.07 27.86c2.97 1.69 4.02 5.47 2.33 8.44a6.185 6.185 0 0 1-8.44 2.33z" fill="#7CA7EA" p-id="4415"></path><path d="M312.5 741.8l-27.86 7.68c-3.3 0.91-6.71-1.03-7.62-4.32a6.199 6.199 0 0 1 4.32-7.62l27.86-7.68c3.3-0.91 6.71 1.03 7.62 4.32 0.92 3.3-1.02 6.71-4.32 7.62z" fill="#7CA7EA" p-id="4416"></path><path d="M288.89 742.01l7.68 27.86c0.91 3.3-1.03 6.71-4.32 7.62-3.3 0.91-6.71-1.03-7.62-4.32l-7.68-27.86a6.199 6.199 0 0 1 4.32-7.62 6.19 6.19 0 0 1 7.62 4.32z" fill="#7CA7EA" p-id="4417"></path><path d="M271.58 694.67l-1.39 20.53c-0.04 0.56 0.29 1.07 0.81 1.28l19.15 7.53c1.04 0.41 1.09 1.85 0.09 2.34l-18.48 9.06c-0.5 0.25-0.79 0.79-0.7 1.34l3.05 20.35c0.17 1.1-1.06 1.87-1.98 1.25l-17.08-11.47c-0.46-0.31-1.08-0.29-1.51 0.06l-16.1 12.82c-0.87 0.69-2.15 0.02-2.08-1.09l1.39-20.53c0.04-0.56-0.29-1.07-0.81-1.28l-19.15-7.53c-1.04-0.41-1.09-1.85-0.09-2.34l18.48-9.06c0.5-0.25 0.79-0.79 0.7-1.34l-3.05-20.35c-0.17-1.1 1.06-1.87 1.98-1.25l17.08 11.47c0.46 0.31 1.08 0.29 1.51-0.06l16.1-12.82c0.88-0.69 2.16-0.02 2.08 1.09z" fill="#7CA7EA" p-id="4418"></path><path d="M492.11 694.58l-48.66 28.57c-2.95 1.73-6.74 0.74-8.48-2.21-1.73-2.95-0.74-6.74 2.21-8.48l48.66-28.57c2.95-1.73 6.74-0.74 8.48 2.21a6.2 6.2 0 0 1-2.21 8.48z" fill="#7CA7EA" p-id="4419"></path><path d="M469.02 682.15l-7.28 27.97c-0.86 3.31-4.24 5.3-7.55 4.43-3.31-0.86-5.3-4.24-4.43-7.55l7.28-27.97c0.86-3.31 4.24-5.3 7.55-4.43 3.31 0.85 5.29 4.24 4.43 7.55z" fill="#7CA7EA" p-id="4420"></path><path d="M457.39 702.7l27.97 7.28c3.31 0.86 5.3 4.24 4.43 7.55-0.86 3.31-4.24 5.3-7.55 4.43l-27.97-7.28c-3.31-0.86-5.3-4.24-4.43-7.55 0.86-3.3 4.24-5.29 7.55-4.43zM432.37 652.56l0.41 56.42a6.203 6.203 0 0 1-6.15 6.24 6.203 6.203 0 0 1-6.24-6.15l-0.41-56.42a6.203 6.203 0 0 1 6.15-6.24 6.184 6.184 0 0 1 6.24 6.15z" fill="#7CA7EA" p-id="4421"></path><path d="M410.06 666.33l20.58 20.29c2.44 2.4 2.46 6.32 0.06 8.76-2.4 2.44-6.32 2.46-8.76 0.06l-20.58-20.29c-2.44-2.4-2.46-6.32-0.06-8.76 2.4-2.43 6.33-2.46 8.76-0.06z" fill="#7CA7EA" p-id="4422"></path><path d="M422.05 686.68l20.29-20.58c2.4-2.44 6.32-2.46 8.76-0.06 2.44 2.4 2.46 6.32 0.06 8.76l-20.29 20.58c-2.4 2.44-6.32 2.46-8.76 0.06a6.202 6.202 0 0 1-0.06-8.76zM366.11 683.28l49.07 27.86c2.97 1.69 4.02 5.47 2.33 8.44-1.69 2.97-5.47 4.02-8.44 2.33L360 694.05c-2.97-1.69-4.02-5.47-2.33-8.44a6.185 6.185 0 0 1 8.44-2.33z" fill="#7CA7EA" p-id="4423"></path><path d="M366.89 709.49l27.86-7.68c3.3-0.91 6.71 1.03 7.62 4.32 0.91 3.3-1.03 6.71-4.32 7.62l-27.86 7.68c-3.3 0.91-6.71-1.03-7.62-4.32a6.183 6.183 0 0 1 4.32-7.62z" fill="#7CA7EA" p-id="4424"></path><path d="M390.5 709.28l-7.68-27.86a6.199 6.199 0 0 1 4.32-7.62c3.3-0.91 6.71 1.03 7.62 4.32l7.68 27.86c0.91 3.3-1.03 6.71-4.32 7.62a6.19 6.19 0 0 1-7.62-4.32z" fill="#7CA7EA" p-id="4425"></path><path d="M359.59 756.02l48.66-28.57c2.95-1.73 6.74-0.74 8.48 2.21 1.73 2.95 0.74 6.74-2.21 8.48l-48.66 28.57c-2.95 1.73-6.74 0.74-8.48-2.21a6.2 6.2 0 0 1 2.21-8.48z" fill="#7CA7EA" p-id="4426"></path><path d="M382.67 768.46l7.28-27.97c0.86-3.31 4.24-5.3 7.55-4.43 3.31 0.86 5.3 4.24 4.43 7.55l-7.28 27.97c-0.86 3.31-4.24 5.3-7.55 4.43a6.196 6.196 0 0 1-4.43-7.55z" fill="#7CA7EA" p-id="4427"></path><path d="M394.3 747.9l-27.97-7.28c-3.31-0.86-5.3-4.24-4.43-7.55 0.86-3.31 4.24-5.3 7.55-4.43l27.97 7.28c3.31 0.86 5.3 4.24 4.43 7.55a6.188 6.188 0 0 1-7.55 4.43z" fill="#7CA7EA" p-id="4428"></path><path d="M419.32 798.05l-0.41-56.42a6.203 6.203 0 0 1 6.15-6.24 6.203 6.203 0 0 1 6.24 6.15l0.41 56.42a6.203 6.203 0 0 1-6.15 6.24 6.203 6.203 0 0 1-6.24-6.15z" fill="#7CA7EA" p-id="4429"></path><path d="M441.63 784.27l-20.58-20.29c-2.44-2.4-2.46-6.32-0.06-8.76 2.4-2.44 6.32-2.46 8.76-0.06l20.58 20.29c2.44 2.4 2.46 6.32 0.06 8.76a6.202 6.202 0 0 1-8.76 0.06z" fill="#7CA7EA" p-id="4430"></path><path d="M429.65 763.92l-20.29 20.58c-2.4 2.44-6.32 2.46-8.76 0.06-2.44-2.4-2.46-6.32-0.06-8.76l20.29-20.58c2.4-2.44 6.32-2.46 8.76-0.06 2.43 2.4 2.46 6.32 0.06 8.76z" fill="#7CA7EA" p-id="4431"></path><path d="M485.58 767.33l-49.07-27.86c-2.97-1.69-4.02-5.47-2.33-8.44 1.69-2.97 5.47-4.02 8.44-2.33l49.07 27.86c2.97 1.69 4.02 5.47 2.33 8.44a6.19 6.19 0 0 1-8.44 2.33z" fill="#7CA7EA" p-id="4432"></path><path d="M484.81 741.11l-27.86 7.68c-3.3 0.91-6.71-1.03-7.62-4.32a6.199 6.199 0 0 1 4.32-7.62l27.86-7.68c3.3-0.91 6.71 1.03 7.62 4.32a6.19 6.19 0 0 1-4.32 7.62z" fill="#7CA7EA" p-id="4433"></path><path d="M461.19 741.32l7.68 27.86c0.91 3.3-1.03 6.71-4.32 7.62-3.3 0.91-6.71-1.03-7.62-4.32l-7.68-27.86a6.199 6.199 0 0 1 4.32-7.62 6.19 6.19 0 0 1 7.62 4.32z" fill="#7CA7EA" p-id="4434"></path><path d="M443.89 693.99l-1.39 20.53c-0.04 0.56 0.29 1.07 0.81 1.28l19.15 7.53c1.04 0.41 1.09 1.85 0.09 2.34l-18.48 9.06c-0.5 0.25-0.79 0.79-0.7 1.34l3.05 20.35c0.17 1.1-1.06 1.87-1.98 1.25l-17.08-11.47c-0.46-0.31-1.08-0.29-1.51 0.06l-16.1 12.82c-0.87 0.69-2.15 0.02-2.08-1.09l1.39-20.53c0.04-0.56-0.29-1.07-0.81-1.28l-19.15-7.53c-1.04-0.41-1.09-1.85-0.09-2.34l18.48-9.06c0.5-0.25 0.79-0.79 0.7-1.34l-3.05-20.35c-0.17-1.1 1.06-1.87 1.98-1.25l17.08 11.47c0.46 0.31 1.08 0.29 1.51-0.06l16.1-12.82c0.87-0.7 2.15-0.03 2.08 1.09z" fill="#7CA7EA" p-id="4435"></path><path d="M664.41 695.95l-48.66 28.57c-2.95 1.73-6.74 0.74-8.48-2.21-1.73-2.95-0.74-6.74 2.21-8.48l48.66-28.57c2.95-1.73 6.74-0.74 8.48 2.21 1.73 2.96 0.74 6.75-2.21 8.48z" fill="#7CA7EA" p-id="4436"></path><path d="M641.33 683.52l-7.28 27.97c-0.86 3.31-4.24 5.3-7.55 4.43-3.31-0.86-5.3-4.24-4.43-7.55l7.28-27.97c0.86-3.31 4.24-5.3 7.55-4.43 3.3 0.86 5.29 4.24 4.43 7.55z" fill="#7CA7EA" p-id="4437"></path><path d="M629.7 704.08l27.97 7.28c3.31 0.86 5.3 4.24 4.43 7.55-0.86 3.31-4.24 5.3-7.55 4.43l-27.97-7.28c-3.31-0.86-5.3-4.24-4.43-7.55a6.188 6.188 0 0 1 7.55-4.43zM604.68 653.93l0.41 56.42a6.203 6.203 0 0 1-6.15 6.24 6.203 6.203 0 0 1-6.24-6.15l-0.41-56.42a6.203 6.203 0 0 1 6.15-6.24 6.203 6.203 0 0 1 6.24 6.15z" fill="#7CA7EA" p-id="4438"></path><path d="M582.37 667.71L602.95 688c2.44 2.4 2.46 6.32 0.06 8.76-2.4 2.44-6.32 2.46-8.76 0.06l-20.58-20.29c-2.44-2.4-2.46-6.32-0.06-8.76a6.202 6.202 0 0 1 8.76-0.06z" fill="#7CA7EA" p-id="4439"></path><path d="M594.35 688.06l20.29-20.58c2.4-2.44 6.32-2.46 8.76-0.06 2.44 2.4 2.46 6.32 0.06 8.76l-20.29 20.58c-2.4 2.44-6.32 2.46-8.76 0.06-2.43-2.41-2.46-6.33-0.06-8.76zM538.42 684.65l49.07 27.86c2.97 1.69 4.02 5.47 2.33 8.44-1.69 2.97-5.47 4.02-8.44 2.33l-49.07-27.86c-2.97-1.69-4.02-5.47-2.33-8.44 1.68-2.98 5.46-4.02 8.44-2.33z" fill="#7CA7EA" p-id="4440"></path><path d="M539.19 710.86l27.86-7.68c3.3-0.91 6.71 1.03 7.62 4.32 0.91 3.3-1.03 6.71-4.32 7.62l-27.86 7.68c-3.3 0.91-6.71-1.03-7.62-4.32a6.19 6.19 0 0 1 4.32-7.62z" fill="#7CA7EA" p-id="4441"></path><path d="M562.81 710.66l-7.68-27.86a6.199 6.199 0 0 1 4.32-7.62c3.3-0.91 6.71 1.03 7.62 4.32l7.68 27.86c0.91 3.3-1.03 6.71-4.32 7.62-3.3 0.91-6.71-1.03-7.62-4.32z" fill="#7CA7EA" p-id="4442"></path><path d="M531.89 757.4l48.66-28.57c2.95-1.73 6.74-0.74 8.48 2.21 1.73 2.95 0.74 6.74-2.21 8.48l-48.66 28.57c-2.95 1.73-6.74 0.74-8.48-2.21a6.197 6.197 0 0 1 2.21-8.48z" fill="#7CA7EA" p-id="4443"></path><path d="M554.98 769.83l7.28-27.97c0.86-3.31 4.24-5.3 7.55-4.43 3.31 0.86 5.3 4.24 4.43 7.55l-7.28 27.97c-0.86 3.31-4.24 5.3-7.55 4.43a6.188 6.188 0 0 1-4.43-7.55z" fill="#7CA7EA" p-id="4444"></path><path d="M566.61 749.27L538.64 742c-3.31-0.86-5.3-4.24-4.43-7.55 0.86-3.31 4.24-5.3 7.55-4.43l27.97 7.28c3.31 0.86 5.3 4.24 4.43 7.55-0.86 3.3-4.24 5.28-7.55 4.42z" fill="#7CA7EA" p-id="4445"></path><path d="M591.63 799.42l-0.41-56.42a6.203 6.203 0 0 1 6.15-6.24 6.203 6.203 0 0 1 6.24 6.15l0.41 56.42a6.203 6.203 0 0 1-6.15 6.24c-3.43 0.02-6.22-2.73-6.24-6.15z" fill="#7CA7EA" p-id="4446"></path><path d="M613.94 785.64l-20.58-20.29c-2.44-2.4-2.46-6.32-0.06-8.76 2.4-2.44 6.32-2.46 8.76-0.06l20.58 20.29c2.44 2.4 2.46 6.32 0.06 8.76-2.4 2.44-6.33 2.46-8.76 0.06z" fill="#7CA7EA" p-id="4447"></path><path d="M601.95 765.29l-20.29 20.58c-2.4 2.44-6.32 2.46-8.76 0.06-2.44-2.4-2.46-6.32-0.06-8.76l20.29-20.58c2.4-2.44 6.32-2.46 8.76-0.06 2.43 2.41 2.46 6.33 0.06 8.76z" fill="#7CA7EA" p-id="4448"></path><path d="M657.89 768.7l-49.07-27.86c-2.97-1.69-4.02-5.47-2.33-8.44 1.69-2.97 5.47-4.02 8.44-2.33L664 757.93c2.97 1.69 4.02 5.47 2.33 8.44a6.185 6.185 0 0 1-8.44 2.33z" fill="#7CA7EA" p-id="4449"></path><path d="M657.11 742.49l-27.86 7.68c-3.3 0.91-6.71-1.03-7.62-4.32a6.199 6.199 0 0 1 4.32-7.62l27.86-7.68c3.3-0.91 6.71 1.03 7.62 4.32 0.92 3.3-1.02 6.71-4.32 7.62z" fill="#7CA7EA" p-id="4450"></path><path d="M633.5 742.7l7.68 27.86c0.91 3.3-1.03 6.71-4.32 7.62-3.3 0.91-6.71-1.03-7.62-4.32L621.56 746a6.199 6.199 0 0 1 4.32-7.62c3.3-0.92 6.71 1.02 7.62 4.32z" fill="#7CA7EA" p-id="4451"></path><path d="M616.19 695.36l-1.39 20.53c-0.04 0.56 0.29 1.07 0.81 1.28l19.15 7.53c1.04 0.41 1.09 1.85 0.09 2.34l-18.48 9.06c-0.5 0.25-0.79 0.79-0.7 1.34l3.05 20.35c0.17 1.1-1.06 1.87-1.98 1.25l-17.08-11.47c-0.46-0.31-1.08-0.29-1.51 0.06l-16.1 12.82c-0.87 0.69-2.15 0.02-2.08-1.09l1.39-20.53c0.04-0.56-0.29-1.07-0.81-1.28l-19.15-7.53c-1.04-0.41-1.09-1.85-0.09-2.34l18.48-9.06c0.5-0.25 0.79-0.79 0.7-1.34l-3.05-20.35c-0.17-1.1 1.06-1.87 1.98-1.25l17.08 11.47c0.46 0.31 1.08 0.29 1.51-0.06l16.1-12.82c0.88-0.69 2.16-0.02 2.08 1.09z" fill="#7CA7EA" p-id="4452"></path><path d="M836.72 696.64l-48.66 28.57c-2.95 1.73-6.74 0.74-8.48-2.21-1.73-2.95-0.74-6.74 2.21-8.48l48.66-28.57c2.95-1.73 6.74-0.74 8.48 2.21 1.73 2.96 0.74 6.75-2.21 8.48z" fill="#7CA7EA" p-id="4453"></path><path d="M813.63 684.21l-7.28 27.97c-0.86 3.31-4.24 5.3-7.55 4.43-3.31-0.86-5.3-4.24-4.43-7.55l7.28-27.97c0.86-3.31 4.24-5.3 7.55-4.43 3.31 0.86 5.29 4.24 4.43 7.55z" fill="#7CA7EA" p-id="4454"></path><path d="M802 704.76l27.97 7.28c3.31 0.86 5.3 4.24 4.43 7.55-0.86 3.31-4.24 5.3-7.55 4.43l-27.97-7.28c-3.31-0.86-5.3-4.24-4.43-7.55 0.86-3.3 4.24-5.29 7.55-4.43zM776.98 654.62l0.41 56.42a6.203 6.203 0 0 1-6.15 6.24 6.203 6.203 0 0 1-6.24-6.15l-0.41-56.42a6.203 6.203 0 0 1 6.15-6.24 6.184 6.184 0 0 1 6.24 6.15z" fill="#7CA7EA" p-id="4455"></path><path d="M754.67 668.39l20.58 20.29c2.44 2.4 2.46 6.32 0.06 8.76-2.4 2.44-6.32 2.46-8.76 0.06l-20.58-20.29c-2.44-2.4-2.46-6.32-0.06-8.76a6.202 6.202 0 0 1 8.76-0.06z" fill="#7CA7EA" p-id="4456"></path><path d="M766.66 688.74l20.29-20.58c2.4-2.44 6.32-2.46 8.76-0.06 2.44 2.4 2.46 6.32 0.06 8.76l-20.29 20.58c-2.4 2.44-6.32 2.46-8.76 0.06a6.202 6.202 0 0 1-0.06-8.76zM710.72 685.34l49.07 27.86c2.97 1.69 4.02 5.47 2.33 8.44-1.69 2.97-5.47 4.02-8.44 2.33l-49.07-27.86c-2.97-1.69-4.02-5.47-2.33-8.44a6.185 6.185 0 0 1 8.44-2.33z" fill="#7CA7EA" p-id="4457"></path><path d="M711.5 711.55l27.86-7.68c3.3-0.91 6.71 1.03 7.62 4.32 0.91 3.3-1.03 6.71-4.32 7.62l-27.86 7.68c-3.3 0.91-6.71-1.03-7.62-4.32a6.183 6.183 0 0 1 4.32-7.62z" fill="#7CA7EA" p-id="4458"></path><path d="M735.11 711.34l-7.68-27.86a6.199 6.199 0 0 1 4.32-7.62c3.3-0.91 6.71 1.03 7.62 4.32l7.68 27.86c0.91 3.3-1.03 6.71-4.32 7.62-3.3 0.92-6.71-1.02-7.62-4.32z" fill="#7CA7EA" p-id="4459"></path><path d="M704.19 758.08l48.66-28.57c2.95-1.73 6.74-0.74 8.48 2.21 1.73 2.95 0.74 6.74-2.21 8.48l-48.66 28.57c-2.95 1.73-6.74 0.74-8.48-2.21-1.72-2.95-0.74-6.75 2.21-8.48z" fill="#7CA7EA" p-id="4460"></path><path d="M727.28 770.52l7.28-27.97c0.86-3.31 4.24-5.3 7.55-4.43 3.31 0.86 5.3 4.24 4.43 7.55l-7.28 27.97c-0.86 3.31-4.24 5.3-7.55 4.43a6.196 6.196 0 0 1-4.43-7.55z" fill="#7CA7EA" p-id="4461"></path><path d="M738.91 749.96l-27.97-7.28c-3.31-0.86-5.3-4.24-4.43-7.55 0.86-3.31 4.24-5.3 7.55-4.43l27.97 7.28c3.31 0.86 5.3 4.24 4.43 7.55a6.188 6.188 0 0 1-7.55 4.43z" fill="#7CA7EA" p-id="4462"></path><path d="M763.93 800.11l-0.41-56.42a6.203 6.203 0 0 1 6.15-6.24 6.203 6.203 0 0 1 6.24 6.15l0.41 56.42a6.203 6.203 0 0 1-6.15 6.24c-3.42 0.02-6.22-2.73-6.24-6.15z" fill="#7CA7EA" p-id="4463"></path><path d="M786.24 786.33l-20.58-20.29c-2.44-2.4-2.46-6.32-0.06-8.76 2.4-2.44 6.32-2.46 8.76-0.06l20.58 20.29c2.44 2.4 2.46 6.32 0.06 8.76a6.202 6.202 0 0 1-8.76 0.06z" fill="#7CA7EA" p-id="4464"></path><path d="M774.25 765.98l-20.29 20.58c-2.4 2.44-6.32 2.46-8.76 0.06-2.44-2.4-2.46-6.32-0.06-8.76l20.29-20.58c2.4-2.44 6.32-2.46 8.76-0.06 2.44 2.4 2.47 6.32 0.06 8.76z" fill="#7CA7EA" p-id="4465"></path><path d="M830.19 769.39l-49.07-27.86c-2.97-1.69-4.02-5.47-2.33-8.44 1.69-2.97 5.47-4.02 8.44-2.33l49.07 27.86c2.97 1.69 4.02 5.47 2.33 8.44a6.19 6.19 0 0 1-8.44 2.33z" fill="#7CA7EA" p-id="4466"></path><path d="M829.42 743.17l-27.86 7.68c-3.3 0.91-6.71-1.03-7.62-4.32a6.199 6.199 0 0 1 4.32-7.62l27.86-7.68c3.3-0.91 6.71 1.03 7.62 4.32 0.91 3.31-1.03 6.72-4.32 7.62z" fill="#7CA7EA" p-id="4467"></path><path d="M805.8 743.38l7.68 27.86c0.91 3.3-1.03 6.71-4.32 7.62-3.3 0.91-6.71-1.03-7.62-4.32l-7.68-27.86a6.199 6.199 0 0 1 4.32-7.62 6.19 6.19 0 0 1 7.62 4.32z" fill="#7CA7EA" p-id="4468"></path><path d="M788.5 696.05l-1.39 20.53c-0.04 0.56 0.29 1.07 0.81 1.28l19.15 7.53c1.04 0.41 1.09 1.85 0.09 2.34l-18.48 9.06c-0.5 0.25-0.79 0.79-0.7 1.34l3.05 20.35c0.17 1.1-1.06 1.87-1.98 1.25l-17.08-11.47c-0.46-0.31-1.08-0.29-1.51 0.06l-16.1 12.82c-0.87 0.69-2.15 0.02-2.08-1.09l1.39-20.53c0.04-0.56-0.29-1.07-0.81-1.28l-19.15-7.53c-1.04-0.41-1.09-1.85-0.09-2.34l18.48-9.06c0.5-0.25 0.79-0.79 0.7-1.34l-3.05-20.35c-0.17-1.1 1.06-1.87 1.98-1.25l17.08 11.47c0.46 0.31 1.08 0.29 1.51-0.06l16.1-12.82c0.87-0.7 2.15-0.02 2.08 1.09z" fill="#7CA7EA" p-id="4469"></path></svg>