<?xml version="1.0" standalone="no"?><!DOCTYPE svg PUBLIC "-//W3C//DTD SVG 1.1//EN" "http://www.w3.org/Graphics/SVG/1.1/DTD/svg11.dtd"><svg t="1744092163691" class="icon" viewBox="0 0 1024 1024" version="1.1" xmlns="http://www.w3.org/2000/svg" p-id="6534" xmlns:xlink="http://www.w3.org/1999/xlink" width="200" height="200"><path d="M0 0m12.641975 0l998.71605 0q12.641975 0 12.641975 12.641975l0 998.71605q0 12.641975-12.641975 12.641975l-998.71605 0q-12.641975 0-12.641975-12.641975l0-998.71605q0-12.641975 12.641975-12.641975Z" fill="#EDEDED" p-id="6535"></path><path d="M684.373333 494.743704H529.256296V339.626667a17.256296 17.256296 0 0 0-34.512592 0v155.117037H339.626667a17.256296 17.256296 0 1 0 0 34.512592h155.117037v155.117037a17.256296 17.256296 0 0 0 34.512592 0V529.256296h155.117037a17.256296 17.256296 0 0 0 0-34.512592z" fill="#CCCCCC" p-id="6536" data-spm-anchor-id="a313x.search_index.0.i8.26c13a81S5opjb" class=""></path></svg>