<?xml version="1.0" standalone="no"?><!DOCTYPE svg PUBLIC "-//W3C//DTD SVG 1.1//EN" "http://www.w3.org/Graphics/SVG/1.1/DTD/svg11.dtd"><svg t="1744433225547" class="icon" viewBox="0 0 1024 1024" version="1.1" xmlns="http://www.w3.org/2000/svg" p-id="4640" xmlns:xlink="http://www.w3.org/1999/xlink" width="200" height="200"><path d="M892.63 396.51c0-111.18-90.13-201.3-201.3-201.3-72.9 0-136.75 38.75-172.07 96.78-30.94-27.57-71.72-44.33-116.42-44.33-65.75 0-123.03 36.25-152.96 89.86-66.45 6.01-118.52 61.86-118.52 129.88 0 72.03 58.39 130.42 130.42 130.42h456.48c37.56 0 71.4-15.88 95.2-41.29 48.12-36.79 79.17-94.77 79.17-160.02z" fill="#EFF3F8" p-id="4641"></path><path d="M367.46 681.97l-69.36 34.89 11.76 76.74 76.62 12.54 35.59-69zM517.64 753.5l60.82-48.25-27.11-72.75-77.56 3.29-20.84 74.79zM716.85 719.25l-76.13-15.22-38 67.7 52.64 57.06 70.54-32.43z" fill="#7CA7EA" p-id="4642"></path></svg>