<?xml version="1.0" standalone="no"?><!DOCTYPE svg PUBLIC "-//W3C//DTD SVG 1.1//EN" "http://www.w3.org/Graphics/SVG/1.1/DTD/svg11.dtd"><svg t="1744433228038" class="icon" viewBox="0 0 1024 1024" version="1.1" xmlns="http://www.w3.org/2000/svg" p-id="4813" xmlns:xlink="http://www.w3.org/1999/xlink" width="200" height="200"><path d="M892.63 423.65c0-111.18-90.13-201.3-201.3-201.3-72.9 0-136.75 38.75-172.07 96.78-30.94-27.57-71.72-44.33-116.42-44.33-65.75 0-123.03 36.25-152.96 89.86-66.45 6.01-118.52 61.86-118.52 129.88 0 72.03 58.39 130.42 130.42 130.42h456.48c37.56 0 71.4-15.88 95.2-41.29 48.12-36.79 79.17-94.78 79.17-160.02z" fill="#EFF3F8" p-id="4814"></path><path d="M429.26 731.99H278.11c-13.81 0-25-11.19-25-25s11.19-25 25-25h151.15c13.81 0 25 11.19 25 25s-11.2 25-25 25zM745.89 731.99H496.7c-13.81 0-25-11.19-25-25s11.19-25 25-25h249.19c13.81 0 25 11.19 25 25s-11.19 25-25 25z" fill="#D2D5DE" p-id="4815"></path><path d="M278.11 776.66m-25 0a25 25 0 1 0 50 0 25 25 0 1 0-50 0Z" fill="#D2D5DE" p-id="4816"></path><path d="M371.66 776.66m-25 0a25 25 0 1 0 50 0 25 25 0 1 0-50 0Z" fill="#D2D5DE" p-id="4817"></path><path d="M465.22 776.66m-25 0a25 25 0 1 0 50 0 25 25 0 1 0-50 0Z" fill="#D2D5DE" p-id="4818"></path><path d="M558.78 776.66m-25 0a25 25 0 1 0 50 0 25 25 0 1 0-50 0Z" fill="#D2D5DE" p-id="4819"></path><path d="M652.34 776.66m-25 0a25 25 0 1 0 50 0 25 25 0 1 0-50 0Z" fill="#D2D5DE" p-id="4820"></path><path d="M745.89 776.66m-25 0a25 25 0 1 0 50 0 25 25 0 1 0-50 0Z" fill="#D2D5DE" p-id="4821"></path></svg>