<?xml version="1.0" standalone="no"?><!DOCTYPE svg PUBLIC "-//W3C//DTD SVG 1.1//EN" "http://www.w3.org/Graphics/SVG/1.1/DTD/svg11.dtd"><svg t="1743341367270" class="icon" viewBox="0 0 1066 1024" version="1.1" xmlns="http://www.w3.org/2000/svg" p-id="2844" xmlns:xlink="http://www.w3.org/1999/xlink" width="208.203125" height="200"><path d="M548.48 0c282.752 0 512 229.248 512 512s-229.248 512-512 512c-282.794667 0-512-229.248-512-512s229.205333-512 512-512z m0 42.666667c-259.242667 0-469.333333 210.133333-469.333333 469.333333s210.090667 469.333333 469.333333 469.333333c259.2 0 469.333333-210.133333 469.333333-469.333333s-210.133333-469.333333-469.333333-469.333333zM375.594667 236.544c9.514667 0.597333 22.613333 4.266667 34.474666 20.778667 16.042667 21.418667 34.474667 53.162667 49.92 87.424 16.085333 35.413333-1.749333 51.328-18.986666 66.005333l-0.597334 0.597333s-31.530667 23.850667-36.864 27.52a13.525333 13.525333 0 0 0-3.584 17.706667c24.405333 40.32 55.893333 80.64 92.757334 116.138667a625.408 625.408 0 0 0 115.328 89.216c2.986667 1.237333 5.973333 2.432 9.514666 1.237333h1.194667a11.733333 11.733333 0 0 0 7.722667-7.338667c3.584-8.533333 9.514667-20.181333 16.085333-30.549333 13.056-20.181333 25.557333-31.146667 39.808-34.261333 4.181333-1.194667 7.722667-1.194667 11.306667-1.194667 3.584 0 10.112 1.194667 17.237333 4.266667 1.792 0.597333 42.24 15.274667 74.922667 36.693333 12.501333 7.936 33.28 21.973333 37.461333 42.752 2.986667 14.08-1.792 30.592-13.653333 49.493333a142.677333 142.677333 0 0 1-85.632 60.544c-14.890667 3.669333-31.530667 4.864-48.170667 3.669334a207.872 207.872 0 0 1-55.296-11.605334c-74.325333-23.893333-136.149333-62.378667-200.96-125.312-110.592-108.16-137.941333-216.96-142.677333-237.738666-21.418667-96 46.933333-152.192 54.698666-158.293334 10.666667-8.576 20.821333-14.08 30.293334-16.512 4.778667-1.237333 9.514667-1.834667 13.696-1.237333z" fill="#2397FF" p-id="2845"></path></svg>