<?xml version="1.0" standalone="no"?><!DOCTYPE svg PUBLIC "-//W3C//DTD SVG 1.1//EN" "http://www.w3.org/Graphics/SVG/1.1/DTD/svg11.dtd"><svg t="1744433202684" class="icon" viewBox="0 0 1024 1024" version="1.1" xmlns="http://www.w3.org/2000/svg" p-id="3228" xmlns:xlink="http://www.w3.org/1999/xlink" width="200" height="200"><path d="M892.63 423.1c0-111.18-90.13-201.3-201.3-201.3-72.9 0-136.75 38.75-172.07 96.78-30.94-27.57-71.72-44.33-116.42-44.33-65.75 0-123.03 36.25-152.96 89.86-66.45 6.01-118.52 61.86-118.52 129.88 0 72.03 58.39 130.42 130.42 130.42h456.48c37.56 0 71.4-15.88 95.2-41.29 48.12-36.79 79.17-94.77 79.17-160.02z" fill="#EFF3F8" p-id="3229"></path><path d="M578.26 692.59l-48.66 28.57c-2.95 1.73-6.74 0.74-8.48-2.21-1.73-2.95-0.74-6.74 2.21-8.48l48.66-28.57c2.95-1.73 6.74-0.74 8.48 2.21a6.2 6.2 0 0 1-2.21 8.48z" fill="#7CA7EA" p-id="3230"></path><path d="M555.17 680.16l-7.28 27.97c-0.86 3.31-4.24 5.3-7.55 4.43-3.31-0.86-5.3-4.24-4.43-7.55l7.28-27.97c0.86-3.31 4.24-5.3 7.55-4.43 3.31 0.85 5.3 4.23 4.43 7.55z" fill="#7CA7EA" p-id="3231"></path><path d="M543.55 700.71l27.97 7.28c3.31 0.86 5.3 4.24 4.43 7.55-0.86 3.31-4.24 5.3-7.55 4.43l-27.97-7.28c-3.31-0.86-5.3-4.24-4.43-7.55 0.85-3.3 4.24-5.29 7.55-4.43zM518.53 650.56l0.41 56.42a6.203 6.203 0 0 1-6.15 6.24 6.203 6.203 0 0 1-6.24-6.15l-0.41-56.42a6.203 6.203 0 0 1 6.15-6.24 6.203 6.203 0 0 1 6.24 6.15z" fill="#7CA7EA" p-id="3232"></path><path d="M496.21 664.34l20.58 20.29c2.44 2.4 2.46 6.32 0.06 8.76-2.4 2.44-6.32 2.46-8.76 0.06l-20.58-20.29c-2.44-2.4-2.46-6.32-0.06-8.76 2.41-2.43 6.33-2.46 8.76-0.06z" fill="#7CA7EA" p-id="3233"></path><path d="M508.2 684.69l20.29-20.58c2.4-2.44 6.32-2.46 8.76-0.06 2.44 2.4 2.46 6.32 0.06 8.76l-20.29 20.58c-2.4 2.44-6.32 2.46-8.76 0.06a6.202 6.202 0 0 1-0.06-8.76zM452.26 681.29l49.07 27.86c2.97 1.69 4.02 5.47 2.33 8.44-1.69 2.97-5.47 4.02-8.44 2.33l-49.07-27.86c-2.97-1.69-4.02-5.47-2.33-8.44a6.185 6.185 0 0 1 8.44-2.33z" fill="#7CA7EA" p-id="3234"></path><path d="M453.04 707.5l27.86-7.68c3.3-0.91 6.71 1.03 7.62 4.32 0.91 3.3-1.03 6.71-4.32 7.62l-27.86 7.68c-3.3 0.91-6.71-1.03-7.62-4.32a6.19 6.19 0 0 1 4.32-7.62z" fill="#7CA7EA" p-id="3235"></path><path d="M476.66 707.29l-7.68-27.86a6.199 6.199 0 0 1 4.32-7.62c3.3-0.91 6.71 1.03 7.62 4.32L488.6 704c0.91 3.3-1.03 6.71-4.32 7.62-3.3 0.9-6.71-1.03-7.62-4.33z" fill="#7CA7EA" p-id="3236"></path><path d="M445.74 754.03l48.66-28.57c2.95-1.73 6.74-0.74 8.48 2.21 1.73 2.95 0.74 6.74-2.21 8.48l-48.66 28.57c-2.95 1.73-6.74 0.74-8.48-2.21a6.2 6.2 0 0 1 2.21-8.48z" fill="#7CA7EA" p-id="3237"></path><path d="M468.83 766.47l7.28-27.97c0.86-3.31 4.24-5.3 7.55-4.43 3.31 0.86 5.3 4.24 4.43 7.55l-7.28 27.97c-0.86 3.31-4.24 5.3-7.55 4.43-3.31-0.86-5.3-4.24-4.43-7.55z" fill="#7CA7EA" p-id="3238"></path><path d="M480.45 745.91l-27.97-7.28c-3.31-0.86-5.3-4.24-4.43-7.55 0.86-3.31 4.24-5.3 7.55-4.43l27.97 7.28c3.31 0.86 5.3 4.24 4.43 7.55-0.85 3.3-4.24 5.29-7.55 4.43z" fill="#7CA7EA" p-id="3239"></path><path d="M505.47 796.06l-0.41-56.42a6.203 6.203 0 0 1 6.15-6.24 6.203 6.203 0 0 1 6.24 6.15l0.41 56.42a6.203 6.203 0 0 1-6.15 6.24 6.203 6.203 0 0 1-6.24-6.15z" fill="#7CA7EA" p-id="3240"></path><path d="M527.79 782.28l-20.58-20.29c-2.44-2.4-2.46-6.32-0.06-8.76 2.4-2.44 6.32-2.46 8.76-0.06l20.58 20.29c2.44 2.4 2.46 6.32 0.06 8.76-2.41 2.43-6.33 2.46-8.76 0.06z" fill="#7CA7EA" p-id="3241"></path><path d="M515.8 761.93l-20.29 20.58c-2.4 2.44-6.32 2.46-8.76 0.06-2.44-2.4-2.46-6.32-0.06-8.76l20.29-20.58c2.4-2.44 6.32-2.46 8.76-0.06 2.43 2.4 2.46 6.32 0.06 8.76z" fill="#7CA7EA" p-id="3242"></path><path d="M571.74 765.34l-49.07-27.86c-2.97-1.69-4.02-5.47-2.33-8.44 1.69-2.97 5.47-4.02 8.44-2.33l49.07 27.86c2.97 1.69 4.02 5.47 2.33 8.44a6.203 6.203 0 0 1-8.44 2.33z" fill="#7CA7EA" p-id="3243"></path><path d="M570.96 739.12l-27.86 7.68c-3.3 0.91-6.71-1.03-7.62-4.32a6.199 6.199 0 0 1 4.32-7.62l27.86-7.68c3.3-0.91 6.71 1.03 7.62 4.32a6.19 6.19 0 0 1-4.32 7.62z" fill="#7CA7EA" p-id="3244"></path><path d="M547.34 739.33l7.68 27.86c0.91 3.3-1.03 6.71-4.32 7.62-3.3 0.91-6.71-1.03-7.62-4.32l-7.68-27.86a6.199 6.199 0 0 1 4.32-7.62 6.19 6.19 0 0 1 7.62 4.32z" fill="#7CA7EA" p-id="3245"></path><path d="M530.04 691.99l-1.39 20.53c-0.04 0.56 0.29 1.07 0.81 1.28l19.15 7.53c1.04 0.41 1.09 1.85 0.09 2.34l-18.48 9.06c-0.5 0.25-0.79 0.79-0.7 1.34l3.05 20.35c0.17 1.1-1.06 1.87-1.98 1.25l-17.08-11.47c-0.46-0.31-1.08-0.29-1.51 0.06l-16.1 12.82c-0.87 0.69-2.15 0.02-2.08-1.09l1.39-20.53c0.04-0.56-0.29-1.07-0.81-1.28l-19.15-7.53c-1.04-0.41-1.09-1.85-0.09-2.34l18.48-9.06c0.5-0.25 0.79-0.79 0.7-1.34l-3.05-20.35c-0.17-1.1 1.06-1.87 1.98-1.25l17.08 11.47c0.46 0.31 1.08 0.29 1.51-0.06l16.1-12.82c0.87-0.69 2.15-0.02 2.08 1.09z" fill="#7CA7EA" p-id="3246"></path></svg>