<?xml version="1.0" standalone="no"?><!DOCTYPE svg PUBLIC "-//W3C//DTD SVG 1.1//EN" "http://www.w3.org/Graphics/SVG/1.1/DTD/svg11.dtd"><svg t="1744433218257" class="icon" viewBox="0 0 1024 1024" version="1.1" xmlns="http://www.w3.org/2000/svg" p-id="3971" xmlns:xlink="http://www.w3.org/1999/xlink" width="200" height="200"><path d="M892.63 422.58c0-111.18-90.13-201.3-201.3-201.3-72.9 0-136.75 38.75-172.07 96.78-30.94-27.57-71.72-44.33-116.42-44.33-65.75 0-123.03 36.25-152.96 89.86-66.45 6.01-118.52 61.86-118.52 129.88 0 72.03 58.39 130.42 130.42 130.42h456.48c37.56 0 71.4-15.88 95.2-41.29 48.12-36.79 79.17-94.77 79.17-160.02z" fill="#EFF3F8" p-id="3972"></path><path d="M458.04 692.42l-48.66 28.57c-2.95 1.73-6.74 0.74-8.48-2.21-1.73-2.95-0.74-6.74 2.21-8.48l48.66-28.57c2.95-1.73 6.74-0.74 8.48 2.21 1.72 2.95 0.74 6.75-2.21 8.48z" fill="#7CA7EA" p-id="3973"></path><path d="M434.95 679.98l-7.28 27.97c-0.86 3.31-4.24 5.3-7.55 4.43-3.31-0.86-5.3-4.24-4.43-7.55l7.28-27.97c0.86-3.31 4.24-5.3 7.55-4.43 3.3 0.86 5.29 4.24 4.43 7.55z" fill="#7CA7EA" p-id="3974"></path><path d="M423.32 700.54l27.97 7.28c3.31 0.86 5.3 4.24 4.43 7.55-0.86 3.31-4.24 5.3-7.55 4.43l-27.97-7.28c-3.31-0.86-5.3-4.24-4.43-7.55a6.188 6.188 0 0 1 7.55-4.43zM398.3 650.39l0.41 56.42a6.203 6.203 0 0 1-6.15 6.24 6.203 6.203 0 0 1-6.24-6.15l-0.41-56.42a6.203 6.203 0 0 1 6.15-6.24c3.42-0.02 6.22 2.73 6.24 6.15z" fill="#7CA7EA" p-id="3975"></path><path d="M375.99 664.17l20.58 20.29c2.44 2.4 2.46 6.32 0.06 8.76-2.4 2.44-6.32 2.46-8.76 0.06l-20.58-20.29c-2.44-2.4-2.46-6.32-0.06-8.76a6.202 6.202 0 0 1 8.76-0.06z" fill="#7CA7EA" p-id="3976"></path><path d="M387.98 684.52l20.29-20.58c2.4-2.44 6.32-2.46 8.76-0.06 2.44 2.4 2.46 6.32 0.06 8.76l-20.29 20.58c-2.4 2.44-6.32 2.46-8.76 0.06a6.184 6.184 0 0 1-0.06-8.76zM332.04 681.11l49.07 27.86c2.97 1.69 4.02 5.47 2.33 8.44-1.69 2.97-5.47 4.02-8.44 2.33l-49.07-27.86c-2.97-1.69-4.02-5.47-2.33-8.44a6.19 6.19 0 0 1 8.44-2.33z" fill="#7CA7EA" p-id="3977"></path><path d="M332.81 707.33l27.86-7.68c3.3-0.91 6.71 1.03 7.62 4.32 0.91 3.3-1.03 6.71-4.32 7.62l-27.86 7.68c-3.3 0.91-6.71-1.03-7.62-4.32a6.199 6.199 0 0 1 4.32-7.62z" fill="#7CA7EA" p-id="3978"></path><path d="M356.43 707.12l-7.68-27.86a6.199 6.199 0 0 1 4.32-7.62c3.3-0.91 6.71 1.03 7.62 4.32l7.68 27.86c0.91 3.3-1.03 6.71-4.32 7.62a6.19 6.19 0 0 1-7.62-4.32z" fill="#7CA7EA" p-id="3979"></path><path d="M325.51 753.86l48.66-28.57c2.95-1.73 6.74-0.74 8.48 2.21 1.73 2.95 0.74 6.74-2.21 8.48l-48.66 28.57c-2.95 1.73-6.74 0.74-8.48-2.21a6.2 6.2 0 0 1 2.21-8.48z" fill="#7CA7EA" p-id="3980"></path><path d="M348.6 766.29l7.28-27.97c0.86-3.31 4.24-5.3 7.55-4.43 3.31 0.86 5.3 4.24 4.43 7.55l-7.28 27.97c-0.86 3.31-4.24 5.3-7.55 4.43-3.31-0.85-5.29-4.24-4.43-7.55z" fill="#7CA7EA" p-id="3981"></path><path d="M360.23 745.74l-27.97-7.28c-3.31-0.86-5.3-4.24-4.43-7.55 0.86-3.31 4.24-5.3 7.55-4.43l27.97 7.28c3.31 0.86 5.3 4.24 4.43 7.55a6.196 6.196 0 0 1-7.55 4.43z" fill="#7CA7EA" p-id="3982"></path><path d="M385.25 795.88l-0.41-56.42a6.203 6.203 0 0 1 6.15-6.24 6.203 6.203 0 0 1 6.24 6.15l0.41 56.42a6.203 6.203 0 0 1-6.15 6.24 6.184 6.184 0 0 1-6.24-6.15z" fill="#7CA7EA" p-id="3983"></path><path d="M407.56 782.11l-20.58-20.29c-2.44-2.4-2.46-6.32-0.06-8.76 2.4-2.44 6.32-2.46 8.76-0.06l20.58 20.29c2.44 2.4 2.46 6.32 0.06 8.76a6.202 6.202 0 0 1-8.76 0.06z" fill="#7CA7EA" p-id="3984"></path><path d="M395.57 761.76l-20.29 20.58c-2.4 2.44-6.32 2.46-8.76 0.06-2.44-2.4-2.46-6.32-0.06-8.76l20.29-20.58c2.4-2.44 6.32-2.46 8.76-0.06 2.43 2.4 2.46 6.32 0.06 8.76z" fill="#7CA7EA" p-id="3985"></path><path d="M451.51 765.16l-49.07-27.86c-2.97-1.69-4.02-5.47-2.33-8.44 1.69-2.97 5.47-4.02 8.44-2.33l49.07 27.86c2.97 1.69 4.02 5.47 2.33 8.44a6.185 6.185 0 0 1-8.44 2.33z" fill="#7CA7EA" p-id="3986"></path><path d="M450.73 738.95l-27.86 7.68c-3.3 0.91-6.71-1.03-7.62-4.32a6.199 6.199 0 0 1 4.32-7.62l27.86-7.68c3.3-0.91 6.71 1.03 7.62 4.32 0.92 3.3-1.02 6.71-4.32 7.62z" fill="#7CA7EA" p-id="3987"></path><path d="M427.12 739.16l7.68 27.86c0.91 3.3-1.03 6.71-4.32 7.62-3.3 0.91-6.71-1.03-7.62-4.32l-7.68-27.86a6.199 6.199 0 0 1 4.32-7.62 6.19 6.19 0 0 1 7.62 4.32z" fill="#7CA7EA" p-id="3988"></path><path d="M409.81 691.82l-1.39 20.53c-0.04 0.56 0.29 1.07 0.81 1.28l19.15 7.53c1.04 0.41 1.09 1.85 0.09 2.34l-18.48 9.06c-0.5 0.25-0.79 0.79-0.7 1.34l3.05 20.35c0.17 1.1-1.06 1.87-1.98 1.25l-17.08-11.47c-0.46-0.31-1.08-0.29-1.51 0.06l-16.1 12.82c-0.87 0.69-2.15 0.02-2.08-1.09l1.39-20.53c0.04-0.56-0.29-1.07-0.81-1.28l-19.15-7.53c-1.04-0.41-1.09-1.85-0.09-2.34l18.48-9.06c0.5-0.25 0.79-0.79 0.7-1.34l-3.05-20.35c-0.17-1.1 1.06-1.87 1.98-1.25l17.08 11.47c0.46 0.31 1.08 0.29 1.51-0.06l16.1-12.82c0.88-0.69 2.16-0.02 2.08 1.09z" fill="#7CA7EA" p-id="3989"></path><path d="M698.49 693.1l-48.66 28.57c-2.95 1.73-6.74 0.74-8.48-2.21-1.73-2.95-0.74-6.74 2.21-8.48l48.66-28.57c2.95-1.73 6.74-0.74 8.48 2.21 1.73 2.96 0.74 6.75-2.21 8.48z" fill="#7CA7EA" p-id="3990"></path><path d="M675.4 680.67l-7.28 27.97c-0.86 3.31-4.24 5.3-7.55 4.43-3.31-0.86-5.3-4.24-4.43-7.55l7.28-27.97c0.86-3.31 4.24-5.3 7.55-4.43 3.31 0.86 5.29 4.24 4.43 7.55z" fill="#7CA7EA" p-id="3991"></path><path d="M663.77 701.23l27.97 7.28c3.31 0.86 5.3 4.24 4.43 7.55-0.86 3.31-4.24 5.3-7.55 4.43l-27.97-7.28c-3.31-0.86-5.3-4.24-4.43-7.55a6.188 6.188 0 0 1 7.55-4.43zM638.75 651.08l0.41 56.42a6.203 6.203 0 0 1-6.15 6.24 6.203 6.203 0 0 1-6.24-6.15l-0.41-56.42a6.203 6.203 0 0 1 6.15-6.24c3.43-0.02 6.22 2.73 6.24 6.15z" fill="#7CA7EA" p-id="3992"></path><path d="M616.44 664.86l20.58 20.29c2.44 2.4 2.46 6.32 0.06 8.76-2.4 2.44-6.32 2.46-8.76 0.06l-20.58-20.29c-2.44-2.4-2.46-6.32-0.06-8.76a6.202 6.202 0 0 1 8.76-0.06z" fill="#7CA7EA" p-id="3993"></path><path d="M628.43 685.21l20.29-20.58c2.4-2.44 6.32-2.46 8.76-0.06 2.44 2.4 2.46 6.32 0.06 8.76l-20.29 20.58c-2.4 2.44-6.32 2.46-8.76 0.06-2.43-2.41-2.46-6.33-0.06-8.76zM572.49 681.8l49.07 27.86c2.97 1.69 4.02 5.47 2.33 8.44-1.69 2.97-5.47 4.02-8.44 2.33l-49.07-27.86c-2.97-1.69-4.02-5.47-2.33-8.44a6.185 6.185 0 0 1 8.44-2.33z" fill="#7CA7EA" p-id="3994"></path><path d="M573.27 708.01l27.86-7.68c3.3-0.91 6.71 1.03 7.62 4.32 0.91 3.3-1.03 6.71-4.32 7.62l-27.86 7.68c-3.3 0.91-6.71-1.03-7.62-4.32a6.183 6.183 0 0 1 4.32-7.62z" fill="#7CA7EA" p-id="3995"></path><path d="M596.88 707.81l-7.68-27.86a6.199 6.199 0 0 1 4.32-7.62c3.3-0.91 6.71 1.03 7.62 4.32l7.68 27.86c0.91 3.3-1.03 6.71-4.32 7.62-3.3 0.91-6.71-1.03-7.62-4.32z" fill="#7CA7EA" p-id="3996"></path><path d="M565.96 754.55l48.66-28.57c2.95-1.73 6.74-0.74 8.48 2.21 1.73 2.95 0.74 6.74-2.21 8.48l-48.66 28.57c-2.95 1.73-6.74 0.74-8.48-2.21-1.72-2.96-0.74-6.75 2.21-8.48z" fill="#7CA7EA" p-id="3997"></path><path d="M589.05 766.98l7.28-27.97c0.86-3.31 4.24-5.3 7.55-4.43 3.31 0.86 5.3 4.24 4.43 7.55l-7.28 27.97c-0.86 3.31-4.24 5.3-7.55 4.43a6.196 6.196 0 0 1-4.43-7.55z" fill="#7CA7EA" p-id="3998"></path><path d="M600.68 746.42l-27.97-7.28c-3.31-0.86-5.3-4.24-4.43-7.55 0.86-3.31 4.24-5.3 7.55-4.43l27.97 7.28c3.31 0.86 5.3 4.24 4.43 7.55a6.188 6.188 0 0 1-7.55 4.43z" fill="#7CA7EA" p-id="3999"></path><path d="M625.7 796.57l-0.41-56.42a6.203 6.203 0 0 1 6.15-6.24 6.203 6.203 0 0 1 6.24 6.15l0.41 56.42a6.203 6.203 0 0 1-6.15 6.24c-3.42 0.02-6.22-2.73-6.24-6.15z" fill="#7CA7EA" p-id="4000"></path><path d="M648.01 782.79l-20.58-20.29c-2.44-2.4-2.46-6.32-0.06-8.76 2.4-2.44 6.32-2.46 8.76-0.06l20.58 20.29c2.44 2.4 2.46 6.32 0.06 8.76-2.4 2.44-6.32 2.46-8.76 0.06z" fill="#7CA7EA" p-id="4001"></path><path d="M636.02 762.44l-20.29 20.58c-2.4 2.44-6.32 2.46-8.76 0.06-2.44-2.4-2.46-6.32-0.06-8.76l20.29-20.58c2.4-2.44 6.32-2.46 8.76-0.06 2.44 2.41 2.47 6.33 0.06 8.76z" fill="#7CA7EA" p-id="4002"></path><path d="M691.96 765.85l-49.07-27.86c-2.97-1.69-4.02-5.47-2.33-8.44 1.69-2.97 5.47-4.02 8.44-2.33l49.07 27.86c2.97 1.69 4.02 5.47 2.33 8.44-1.68 2.98-5.46 4.02-8.44 2.33z" fill="#7CA7EA" p-id="4003"></path><path d="M691.19 739.64l-27.86 7.68c-3.3 0.91-6.71-1.03-7.62-4.32a6.199 6.199 0 0 1 4.32-7.62l27.86-7.68c3.3-0.91 6.71 1.03 7.62 4.32 0.91 3.3-1.03 6.71-4.32 7.62z" fill="#7CA7EA" p-id="4004"></path><path d="M667.57 739.85l7.68 27.86c0.91 3.3-1.03 6.71-4.32 7.62-3.3 0.91-6.71-1.03-7.62-4.32l-7.68-27.86a6.199 6.199 0 0 1 4.32-7.62c3.3-0.92 6.71 1.02 7.62 4.32z" fill="#7CA7EA" p-id="4005"></path><path d="M650.27 692.51l-1.39 20.53c-0.04 0.56 0.29 1.07 0.81 1.28l19.15 7.53c1.04 0.41 1.09 1.85 0.09 2.34l-18.48 9.06c-0.5 0.25-0.79 0.79-0.7 1.34l3.05 20.35c0.17 1.1-1.06 1.87-1.98 1.25l-17.08-11.47c-0.46-0.31-1.08-0.29-1.51 0.06l-16.1 12.82c-0.87 0.69-2.15 0.02-2.08-1.09l1.39-20.53c0.04-0.56-0.29-1.07-0.81-1.28l-19.15-7.53c-1.04-0.41-1.09-1.85-0.09-2.34l18.48-9.06c0.5-0.25 0.79-0.79 0.7-1.34l-3.05-20.35c-0.17-1.1 1.06-1.87 1.98-1.25l17.08 11.47c0.46 0.31 1.08 0.29 1.51-0.06l16.1-12.82c0.87-0.69 2.15-0.02 2.08 1.09z" fill="#7CA7EA" p-id="4006"></path></svg>