<?xml version="1.0" standalone="no"?><!DOCTYPE svg PUBLIC "-//W3C//DTD SVG 1.1//EN" "http://www.w3.org/Graphics/SVG/1.1/DTD/svg11.dtd"><svg t="1744433230122" class="icon" viewBox="0 0 1024 1024" version="1.1" xmlns="http://www.w3.org/2000/svg" p-id="4992" xmlns:xlink="http://www.w3.org/1999/xlink" width="200" height="200"><path d="M735.7 718.95H168.25c-15.82 0-28.65-12.83-28.65-28.65 0-15.82 12.83-28.65 28.65-28.65H735.7c15.82 0 28.65 12.83 28.65 28.65 0 15.82-12.83 28.65-28.65 28.65zM637.64 631.43H168.25c-15.82 0-28.65-12.83-28.65-28.65 0-15.82 12.83-28.65 28.65-28.65h469.39c15.82 0 28.65 12.83 28.65 28.65 0 15.83-12.83 28.65-28.65 28.65z" fill="#D2D5DE" p-id="4993"></path><path d="M549.68 457.18m-28.65 0a28.65 28.65 0 1 0 57.3 0 28.65 28.65 0 1 0-57.3 0Z" fill="#D2D5DE" p-id="4994"></path><path d="M402.94 352.24m-47.18 0a47.18 47.18 0 1 0 94.36 0 47.18 47.18 0 1 0-94.36 0Z" fill="#D2D5DE" p-id="4995"></path><path d="M837.22 602.78m-47.18 0a47.18 47.18 0 1 0 94.36 0 47.18 47.18 0 1 0-94.36 0Z" fill="#D2D5DE" p-id="4996"></path><path d="M199.98 486.41m-47.18 0a47.18 47.18 0 1 0 94.36 0 47.18 47.18 0 1 0-94.36 0Z" fill="#D2D5DE" p-id="4997"></path></svg>