<?xml version="1.0" standalone="no"?><!DOCTYPE svg PUBLIC "-//W3C//DTD SVG 1.1//EN" "http://www.w3.org/Graphics/SVG/1.1/DTD/svg11.dtd"><svg t="1744433196928" class="icon" viewBox="0 0 1024 1024" version="1.1" xmlns="http://www.w3.org/2000/svg" p-id="2879" xmlns:xlink="http://www.w3.org/1999/xlink" width="200" height="200"><path d="M637.88 73.51c4.11 30.79 2.5 62.86-5.71 94.79-34.22 133.01-169.78 213.1-302.79 178.88a249.604 249.604 0 0 1-51.62-19.56c13.01 97.46 83.51 182 184.59 208 133.01 34.22 268.57-45.87 302.79-178.88 29.52-114.75-26.04-231.39-127.26-283.23z" fill="#FFD184" p-id="2880"></path><path d="M892.63 509.82c0-111.18-90.13-201.3-201.3-201.3-72.9 0-136.75 38.75-172.07 96.78-30.94-27.57-71.72-44.33-116.42-44.33-65.75 0-123.03 36.25-152.96 89.86-66.45 6.01-118.52 61.86-118.52 129.88 0 72.03 58.39 130.42 130.42 130.42h456.48c37.56 0 71.4-15.88 95.2-41.29 48.12-36.79 79.17-94.78 79.17-160.02z" fill="#EFF3F8" p-id="2881"></path><path d="M486.36 788.13L439.08 925.2c-6.75 19.58-28.1 29.98-47.68 23.22-19.58-6.75-29.98-28.1-23.22-47.68l47.28-137.08c6.75-19.58 28.1-29.98 47.68-23.22 19.57 6.76 29.97 28.11 23.22 47.69zM654.89 788.13L607.62 925.2c-6.75 19.58-28.1 29.98-47.68 23.22-19.58-6.75-29.98-28.1-23.22-47.68L584 763.66c6.75-19.58 28.1-29.98 47.68-23.22 19.57 6.76 29.97 28.11 23.21 47.69z" fill="#7CA7EA" p-id="2882"></path></svg>