<?xml version="1.0" standalone="no"?><!DOCTYPE svg PUBLIC "-//W3C//DTD SVG 1.1//EN" "http://www.w3.org/Graphics/SVG/1.1/DTD/svg11.dtd"><svg t="1744433207430" class="icon" viewBox="0 0 1024 1024" version="1.1" xmlns="http://www.w3.org/2000/svg" p-id="3591" xmlns:xlink="http://www.w3.org/1999/xlink" width="200" height="200"><path d="M892.63 394.25c0-111.18-90.13-201.3-201.3-201.3-72.9 0-136.75 38.75-172.07 96.78-30.94-27.57-71.72-44.33-116.42-44.33-65.75 0-123.03 36.25-152.96 89.86-66.45 6.01-118.52 61.86-118.52 129.88 0 72.03 58.39 130.42 130.42 130.42h456.48c37.56 0 71.4-15.88 95.2-41.29 48.12-36.79 79.17-94.78 79.17-160.02z" fill="#EFF3F8" p-id="3592"></path><path d="M664.41 694.29l-48.66 28.57c-2.95 1.73-6.74 0.74-8.48-2.21-1.73-2.95-0.74-6.74 2.21-8.48l48.66-28.57c2.95-1.73 6.74-0.74 8.48 2.21a6.2 6.2 0 0 1-2.21 8.48z" fill="#7CA7EA" p-id="3593"></path><path d="M641.33 681.85l-7.28 27.97c-0.86 3.31-4.24 5.3-7.55 4.43-3.31-0.86-5.3-4.24-4.43-7.55l7.28-27.97c0.86-3.31 4.24-5.3 7.55-4.43 3.3 0.86 5.29 4.24 4.43 7.55z" fill="#7CA7EA" p-id="3594"></path><path d="M629.7 702.41l27.97 7.28c3.31 0.86 5.3 4.24 4.43 7.55-0.86 3.31-4.24 5.3-7.55 4.43l-27.97-7.28c-3.31-0.86-5.3-4.24-4.43-7.55a6.188 6.188 0 0 1 7.55-4.43zM604.68 652.26l0.41 56.42a6.203 6.203 0 0 1-6.15 6.24 6.203 6.203 0 0 1-6.24-6.15l-0.41-56.42a6.203 6.203 0 0 1 6.15-6.24 6.203 6.203 0 0 1 6.24 6.15z" fill="#7CA7EA" p-id="3595"></path><path d="M582.37 666.04l20.58 20.29c2.44 2.4 2.46 6.32 0.06 8.76-2.4 2.44-6.32 2.46-8.76 0.06l-20.58-20.29c-2.44-2.4-2.46-6.32-0.06-8.76a6.202 6.202 0 0 1 8.76-0.06z" fill="#7CA7EA" p-id="3596"></path><path d="M594.35 686.39l20.29-20.58c2.4-2.44 6.32-2.46 8.76-0.06 2.44 2.4 2.46 6.32 0.06 8.76l-20.29 20.58c-2.4 2.44-6.32 2.46-8.76 0.06a6.202 6.202 0 0 1-0.06-8.76zM538.42 682.98l49.07 27.86c2.97 1.69 4.02 5.47 2.33 8.44-1.69 2.97-5.47 4.02-8.44 2.33l-49.07-27.86c-2.97-1.69-4.02-5.47-2.33-8.44a6.19 6.19 0 0 1 8.44-2.33z" fill="#7CA7EA" p-id="3597"></path><path d="M539.19 709.2l27.86-7.68c3.3-0.91 6.71 1.03 7.62 4.32 0.91 3.3-1.03 6.71-4.32 7.62l-27.86 7.68c-3.3 0.91-6.71-1.03-7.62-4.32-0.91-3.31 1.02-6.72 4.32-7.62z" fill="#7CA7EA" p-id="3598"></path><path d="M562.81 708.99l-7.68-27.86a6.199 6.199 0 0 1 4.32-7.62c3.3-0.91 6.71 1.03 7.62 4.32l7.68 27.86c0.91 3.3-1.03 6.71-4.32 7.62a6.19 6.19 0 0 1-7.62-4.32z" fill="#7CA7EA" p-id="3599"></path><path d="M531.89 755.73l48.66-28.57c2.95-1.73 6.74-0.74 8.48 2.21 1.73 2.95 0.74 6.74-2.21 8.48l-48.66 28.57c-2.95 1.73-6.74 0.74-8.48-2.21a6.197 6.197 0 0 1 2.21-8.48z" fill="#7CA7EA" p-id="3600"></path><path d="M554.98 768.16l7.28-27.97c0.86-3.31 4.24-5.3 7.55-4.43 3.31 0.86 5.3 4.24 4.43 7.55l-7.28 27.97c-0.86 3.31-4.24 5.3-7.55 4.43a6.188 6.188 0 0 1-4.43-7.55z" fill="#7CA7EA" p-id="3601"></path><path d="M566.61 747.61l-27.97-7.28c-3.31-0.86-5.3-4.24-4.43-7.55 0.86-3.31 4.24-5.3 7.55-4.43l27.97 7.28c3.31 0.86 5.3 4.24 4.43 7.55a6.196 6.196 0 0 1-7.55 4.43z" fill="#7CA7EA" p-id="3602"></path><path d="M591.63 797.75l-0.41-56.42a6.203 6.203 0 0 1 6.15-6.24 6.203 6.203 0 0 1 6.24 6.15l0.41 56.42a6.203 6.203 0 0 1-6.15 6.24 6.184 6.184 0 0 1-6.24-6.15z" fill="#7CA7EA" p-id="3603"></path><path d="M613.94 783.98l-20.58-20.29c-2.44-2.4-2.46-6.32-0.06-8.76 2.4-2.44 6.32-2.46 8.76-0.06l20.58 20.29c2.44 2.4 2.46 6.32 0.06 8.76-2.4 2.43-6.33 2.46-8.76 0.06z" fill="#7CA7EA" p-id="3604"></path><path d="M601.95 763.63l-20.29 20.58c-2.4 2.44-6.32 2.46-8.76 0.06-2.44-2.4-2.46-6.32-0.06-8.76l20.29-20.58c2.4-2.44 6.32-2.46 8.76-0.06 2.43 2.4 2.46 6.32 0.06 8.76z" fill="#7CA7EA" p-id="3605"></path><path d="M657.89 767.03l-49.07-27.86c-2.97-1.69-4.02-5.47-2.33-8.44 1.69-2.97 5.47-4.02 8.44-2.33L664 756.26c2.97 1.69 4.02 5.47 2.33 8.44a6.185 6.185 0 0 1-8.44 2.33z" fill="#7CA7EA" p-id="3606"></path><path d="M657.11 740.82l-27.86 7.68c-3.3 0.91-6.71-1.03-7.62-4.32a6.199 6.199 0 0 1 4.32-7.62l27.86-7.68c3.3-0.91 6.71 1.03 7.62 4.32 0.92 3.3-1.02 6.71-4.32 7.62z" fill="#7CA7EA" p-id="3607"></path><path d="M633.5 741.03l7.68 27.86c0.91 3.3-1.03 6.71-4.32 7.62-3.3 0.91-6.71-1.03-7.62-4.32l-7.68-27.86a6.199 6.199 0 0 1 4.32-7.62c3.3-0.92 6.71 1.02 7.62 4.32z" fill="#7CA7EA" p-id="3608"></path><path d="M616.19 693.69l-1.39 20.53c-0.04 0.56 0.29 1.07 0.81 1.28l19.15 7.53c1.04 0.41 1.09 1.85 0.09 2.34l-18.48 9.06c-0.5 0.25-0.79 0.79-0.7 1.34l3.05 20.35c0.17 1.1-1.06 1.87-1.98 1.25l-17.08-11.47c-0.46-0.31-1.08-0.29-1.51 0.06l-16.1 12.82c-0.87 0.69-2.15 0.02-2.08-1.09l1.39-20.53c0.04-0.56-0.29-1.07-0.81-1.28l-19.15-7.53c-1.04-0.41-1.09-1.85-0.09-2.34l18.48-9.06c0.5-0.25 0.79-0.79 0.7-1.34l-3.05-20.35c-0.17-1.1 1.06-1.87 1.98-1.25l17.08 11.47c0.46 0.31 1.08 0.29 1.51-0.06l16.1-12.82c0.88-0.69 2.16-0.02 2.08 1.09z" fill="#7CA7EA" p-id="3609"></path><path d="M427.08 668.7L379.8 805.77c-6.75 19.58-28.1 29.98-47.68 23.22-19.58-6.75-29.98-28.1-23.22-47.68l47.28-137.08c6.75-19.58 28.1-29.98 47.68-23.22 19.57 6.76 29.97 28.11 23.22 47.69z" fill="#7CA7EA" p-id="3610"></path></svg>