<?xml version="1.0" standalone="no"?><!DOCTYPE svg PUBLIC "-//W3C//DTD SVG 1.1//EN" "http://www.w3.org/Graphics/SVG/1.1/DTD/svg11.dtd"><svg t="1744433043615" class="icon" viewBox="0 0 1024 1024" version="1.1" xmlns="http://www.w3.org/2000/svg" p-id="1490" xmlns:xlink="http://www.w3.org/1999/xlink" width="200" height="200"><path d="M578.19 219.34C592.24 254.08 600 292.03 600 331.8c0 165.69-134.31 300-300 300-22.74 0-44.89-2.55-66.19-7.34C278.31 734.42 386.09 812 512 812c165.69 0 300-134.31 300-300 0-142.94-99.98-262.52-233.81-292.66zM355.11 473.76l-18.33-19.51-26.45 4.04 12.88-23.46-12.01-23.91 26.29 5.01 19.03-18.82 3.36 26.55 23.78 12.28-24.21 11.41z" fill="#FFD184" p-id="1491"></path></svg>