<?xml version="1.0" standalone="no"?><!DOCTYPE svg PUBLIC "-//W3C//DTD SVG 1.1//EN" "http://www.w3.org/Graphics/SVG/1.1/DTD/svg11.dtd"><svg t="1744433205135" class="icon" viewBox="0 0 1024 1024" version="1.1" xmlns="http://www.w3.org/2000/svg" p-id="3417" xmlns:xlink="http://www.w3.org/1999/xlink" width="200" height="200"><path d="M892.63 350.57c0-111.18-90.13-201.3-201.3-201.3-72.9 0-136.75 38.75-172.07 96.78-30.94-27.57-71.72-44.33-116.42-44.33-65.75 0-123.03 36.25-152.96 89.86-66.45 6.01-118.52 61.86-118.52 129.88 0 72.03 58.39 130.42 130.42 130.42h456.48c37.56 0 71.4-15.88 95.2-41.29 48.12-36.79 79.17-94.78 79.17-160.02z" fill="#EFF3F8" p-id="3418"></path><path d="M391.7 660.63l-47.28 137.08c-6.75 19.58-28.1 29.98-47.68 23.22-19.58-6.75-29.98-28.1-23.22-47.68l47.28-137.08c6.75-19.58 28.1-29.98 47.68-23.22 19.57 6.76 29.97 28.11 23.22 47.68zM750.48 660.63L703.2 797.71c-6.75 19.58-28.1 29.98-47.68 23.22-19.58-6.75-29.98-28.1-23.22-47.68l47.28-137.08c6.75-19.58 28.1-29.98 47.68-23.22 19.57 6.76 29.97 28.11 23.22 47.68z" fill="#7CA7EA" p-id="3419"></path><path d="M588.6 718.75c4.08-11.05 1.81-20-5.06-20h-20.17c-4.36 0-7.59-4.06-7.53-9.47l1.24-124.79c0.07-7.12-6.33-7.12-11.52 0l-102.98 141.3c-0.72 0.99-1.33 2.01-1.85 3.04a41.565 41.565 0 0 0-5.32 9.93c-4.08 11.05-1.81 20 5.06 20h22.37c4.36 0 7.59 4.06 7.53 9.47l-1.2 121.17c-0.07 7.12 6.33 7.12 11.52 0L582.2 730.1c2.58-3.22 4.84-7.13 6.4-11.35z" fill="#FFD184" p-id="3420"></path></svg>