<?xml version="1.0" standalone="no"?><!DOCTYPE svg PUBLIC "-//W3C//DTD SVG 1.1//EN" "http://www.w3.org/Graphics/SVG/1.1/DTD/svg11.dtd"><svg t="1744470128310" class="icon" viewBox="0 0 1049 1024" version="1.1" xmlns="http://www.w3.org/2000/svg" p-id="1005" xmlns:xlink="http://www.w3.org/1999/xlink" width="204.8828125" height="200"><path d="M109.9264 552.96a41.2672 41.2672 0 0 1-40.704-40.9856c0-22.2976 18.5344-40.96 40.704-40.96h244.3776c22.1952 0 40.7296 18.6624 40.7296 40.96 0 22.3232-18.5344 40.96-40.704 40.96H109.9008z m0 245.7088c-22.272 0-40.704-18.7392-40.704-40.96 0-22.1952 18.432-40.96 40.704-40.96h40.704c22.1952 0 40.7552 19.072 40.7552 40.96 0 22.1184-18.7904 40.96-40.7296 40.96h-40.704zM109.9264 430.08a41.216 41.216 0 0 1-40.704-40.96c0-22.3232 18.5344-40.96 40.704-40.96l322.56 0.0256c47.8208 0 84.736-37.6832 84.736-81.92 0-44.2368-36.9152-81.92-84.736-81.92-35.4048-0.1792-68.736 22.4256-80.384 56.2688-8.9088 27.4688-38.0672 36.5312-58.2144 27.0848-17.1008-8.0128-27.136-30.5664-18.9184-53.632 22.784-66.5344 87.552-111.7952 157.44-111.6672 90.8032 0 166.1696 72.3456 166.1696 163.8144s-75.3664 163.8144-166.1696 163.8144l-322.4832 0.0256zM799.0272 552.9088l-322.5344 0.0256a41.2672 41.2672 0 0 1-40.7296-40.96c0-22.2976 18.56-40.96 40.7296-40.96h322.5344c47.8464 0 84.736-37.632 84.736-81.8944 0-44.2112-36.9152-81.92-84.6592-81.92-35.584-0.1792-68.8384 22.528-80.4352 56.2688-3.584 10.1376-11.0336 18.432-20.6848 23.1168a40.5504 40.5504 0 0 1-54.1696-18.6368 41.216 41.216 0 0 1-2.2528-31.0016c22.7072-66.304 87.3728-111.7952 157.44-111.6672 90.8288 0 166.1952 72.3968 166.1952 163.7888 0 91.4176-75.3664 163.84-166.1696 163.84z" fill="#eff3f8" p-id="1006" data-spm-anchor-id="a313x.collections_detail.0.i0.150b3a81loBEyO" class=""></path><path d="M717.5936 921.6c90.8032 0 166.1696-72.3456 166.1696-163.8144s-75.3664-163.8144-166.144-163.8144l-607.6928-0.1024c-22.272 0-40.704 18.7648-40.704 40.96 0 22.2208 18.432 40.96 40.704 40.96H372.224c33.9456-1.3312 63.5904 27.2384 63.5904 61.44 0 33.8944-29.2864 62.8224-63.5904 61.44l-0.256 0.0512c-26.752 0.1536-51.8656-16.896-60.5952-42.3168-7.0656-20.7104-30.7968-32.6912-51.7632-25.4464-20.736 7.168-32.4608 31.104-25.3184 52.0448 19.8912 58.0096 76.416 97.7408 137.728 97.6128 79.1296 0 145.2032-63.232 145.2032-143.36 0-22.0928-4.992-42.9056-13.9264-61.44l214.3232 0.0512c47.744 0 84.6592 37.7344 84.6592 81.9712s-36.9152 81.92-84.6592 81.92V839.68c-35.5328 0.1536-68.8128-22.5536-80.384-56.2944a41.1136 41.1136 0 0 0-51.584-24.96 41.4464 41.4464 0 0 0-25.5488 51.5072c22.7328 66.304 87.424 111.8208 157.5168 111.6672z" fill="#eff3f8" p-id="1007"></path></svg>