<?xml version="1.0" standalone="no"?><!DOCTYPE svg PUBLIC "-//W3C//DTD SVG 1.1//EN" "http://www.w3.org/Graphics/SVG/1.1/DTD/svg11.dtd"><svg t="1744031478415" class="icon" viewBox="0 0 1024 1024" version="1.1" xmlns="http://www.w3.org/2000/svg" p-id="3388" xmlns:xlink="http://www.w3.org/1999/xlink" width="200" height="200"><path d="M512 61.44c-248.490667 0-450.56 202.069333-450.56 450.56s202.069333 450.56 450.56 450.56 450.56-202.069333 450.56-450.56-202.069333-450.56-450.56-450.56z m204.8 464.213333c0 15.018667-12.288 27.306667-27.306667 27.306667h-136.533333v136.533333c0 15.018667-12.288 27.306667-27.306667 27.306667h-27.306666c-15.018667 0-27.306667-12.288-27.306667-27.306667v-136.533333h-136.533333c-15.018667 0-27.306667-12.288-27.306667-27.306667v-27.306666c0-15.018667 12.288-27.306667 27.306667-27.306667h136.533333v-136.533333c0-15.018667 12.288-27.306667 27.306667-27.306667h27.306666c15.018667 0 27.306667 12.288 27.306667 27.306667v136.533333h136.533333c15.018667 0 27.306667 12.288 27.306667 27.306667v27.306666z" fill="#309fff" p-id="3389"></path></svg>