<?xml version="1.0" standalone="no"?><!DOCTYPE svg PUBLIC "-//W3C//DTD SVG 1.1//EN" "http://www.w3.org/Graphics/SVG/1.1/DTD/svg11.dtd"><svg t="1743601003536" class="icon" viewBox="0 0 1024 1024" version="1.1" xmlns="http://www.w3.org/2000/svg" p-id="1408" data-spm-anchor-id="a313x.collections_detail.0.i10.3a683a81zg1JPS" xmlns:xlink="http://www.w3.org/1999/xlink" width="200" height="200"><path d="M826.9824 697.99936H313.50784l-93.3888 94.208c-38.58432 38.912-105.02144 11.55072-105.02144-43.29472V235.97056a81.92 81.92 0 0 1 81.92-81.92h629.88288a81.92 81.92 0 0 1 81.92 81.92v380.1088a81.92 81.92 0 0 1-81.92 81.92zM176.5376 235.97056v512.94208l111.4112-112.35328h539.0336c13.63968 0 20.48-6.79936 20.48-20.48v-380.1088c0-13.63968-6.84032-20.48-20.48-20.48H197.0176c-13.63968 0-20.48 6.84032-20.48 20.48z" fill="#999999" p-id="1409" data-spm-anchor-id="a313x.collections_detail.0.i6.3a683a81zg1JPS" class="selected"></path><path d="M306.50368 309.8624h429.6704a30.67904 30.67904 0 1 1 0 61.44H306.50368a30.67904 30.67904 0 1 1 0-61.44zM306.50368 476.24192h224.17408a30.67904 30.67904 0 0 1 0 61.44H306.50368a30.67904 30.67904 0 0 1-5.98016-60.86656 30.67904 30.67904 0 0 1 5.98016-0.57344z" fill="#309fff" p-id="1410" data-spm-anchor-id="a313x.collections_detail.0.i9.3a683a81zg1JPS" class=""></path></svg>