<?xml version="1.0" standalone="no"?><!DOCTYPE svg PUBLIC "-//W3C//DTD SVG 1.1//EN" "http://www.w3.org/Graphics/SVG/1.1/DTD/svg11.dtd"><svg t="1744005338332" class="icon" viewBox="0 0 1024 1024" version="1.1" xmlns="http://www.w3.org/2000/svg" p-id="974" xmlns:xlink="http://www.w3.org/1999/xlink" width="200" height="200"><path d="M0 0m0 0l1024 0q0 0 0 0l0 1024q0 0 0 0l-1024 0q0 0 0 0l0-1024q0 0 0 0Z" fill="#FFFFFF" fill-opacity=".01" p-id="975"></path><path d="M0 0m0 0l1024 0q0 0 0 0l0 1024q0 0 0 0l-1024 0q0 0 0 0l0-1024q0 0 0 0Z" fill="#FFFFFF" fill-opacity=".01" p-id="976"></path><path d="M594.176 415.104V285.866667a96.896 96.896 0 0 0-96.896-96.853334l-129.194667 290.688v355.328h375.338667a64.597333 64.597333 0 0 0 64.597333-54.912l44.586667-290.730666a64.597333 64.597333 0 0 0-64.597333-74.282667h-193.834667z" fill="#B3CDFF" p-id="977"></path><path d="M332.16 476.117333H245.930667c-37.845333-0.682667-70.186667 30.677333-75.264 68.181334v226.133333c5.077333 37.504 37.418667 65.28 75.264 64.597333h86.229333v-358.912z" fill="#2F88FF" p-id="978"></path></svg>