<svg width="24.000000" height="24.000000" viewBox="0 0 1024 1024" version="1.1" xmlns="http://www.w3.org/2000/svg" p-id="2441" data-spm-anchor-id="a313x.collections_detail.0.i12.34cc3a81IwuPNZ" xmlns:xlink="http://www.w3.org/1999/xlink">
    <path d="M843.8784 689.8688h-487.424a42.2912 42.2912 0 0 1-42.0352-35.84L241.2544 175.9744a92.16 92.16 0 0 0-73.7792-76.4928l-56.32-10.7008a25.6 25.6 0 0 0-9.5744 50.3296l56.32 10.7008a40.96 40.96 0 0 1 32.768 33.8944l73.1648 477.8496a93.184 93.184 0 0 0 92.6208 79.5136h487.424a25.6 25.6 0 0 0 0-51.2z" fill="#B3B3B3" p-id="2442" data-spm-anchor-id="a313x.collections_detail.0.i13.34cc3a81IwuPNZ" class=""></path>
    <path d="M916.8896 205.7216a68.2496 68.2496 0 0 0-53.1968-25.2928H318.9248a25.6 25.6 0 0 0 0 51.2h544.768a17.5104 17.5104 0 0 1 16.9472 21.0432l-55.6032 271.8208a17.5104 17.5104 0 0 1-15.7184 13.9264L382.0032 573.44a25.6 25.6 0 0 0 2.048 51.2h2.0992l427.52-34.816A68.9664 68.9664 0 0 0 875.52 534.7328l55.6032-271.8208a68.4544 68.4544 0 0 0-14.2336-57.1904zM355.9424 808.6528a48.384 48.384 0 1 0 48.5376 48.384 48.384 48.384 0 0 0-48.5376-48.384zM780.3392 808.6528a48.384 48.384 0 1 0 48.384 48.384 48.384 48.384 0 0 0-48.384-48.384z" fill="#B3B3B3" fill-opacity="0.800000" p-id="2443" data-spm-anchor-id="a313x.collections_detail.0.i14.34cc3a81IwuPNZ" class=""></path>
</svg>