<?xml version="1.0" standalone="no"?><!DOCTYPE svg PUBLIC "-//W3C//DTD SVG 1.1//EN" "http://www.w3.org/Graphics/SVG/1.1/DTD/svg11.dtd"><svg t="1741703225430" class="icon" viewBox="0 0 1024 1024" version="1.1" xmlns="http://www.w3.org/2000/svg" p-id="3327" xmlns:xlink="http://www.w3.org/1999/xlink" width="200" height="200"><path d="M508.202667 1021.312c-45.312 0-413.354667-316.8-413.354667-605.226667 0-227.925333 185.429333-413.354667 413.354667-413.354666 230.613333 0 425.429333 191.829333 425.429333 418.858666 0 324.181333-379.093333 599.722667-425.429333 599.722667z m0-933.248c-180.864 0-328.021333 147.157333-328.021334 328.021333 0 215.466667 255.36 451.968 330.837334 512.170667 76.714667-50.645333 337.322667-260.224 337.322666-506.666667-0.042667-180.778667-155.818667-333.525333-340.138666-333.525333z" fill="#757575" p-id="3328"></path><path d="M514.218667 572.501333a184.234667 184.234667 0 0 1-184.021334-184.021333c0-101.461333 82.56-184.021333 184.021334-184.021333s184.021333 82.56 184.021333 184.021333a184.192 184.192 0 0 1-184.021333 184.021333z m0-282.709333a98.816 98.816 0 0 0-98.688 98.688 98.816 98.816 0 0 0 98.688 98.688 98.816 98.816 0 0 0 98.688-98.688 98.816 98.816 0 0 0-98.688-98.688z" fill="#757575" p-id="3329"></path></svg>